<?xml version="1.0" encoding="UTF-8" standalone="no"?>
<svg
   xmlns:dc="http://purl.org/dc/elements/1.1/"
   xmlns:cc="http://creativecommons.org/ns#"
   xmlns:rdf="http://www.w3.org/1999/02/22-rdf-syntax-ns#"
   xmlns:svg="http://www.w3.org/2000/svg"
   xmlns="http://www.w3.org/2000/svg"
   xmlns:sodipodi="http://sodipodi.sourceforge.net/DTD/sodipodi-0.dtd"
   xmlns:inkscape="http://www.inkscape.org/namespaces/inkscape"
   width="635.39001pt"
   height="283.5pt"
   viewBox="0 0 635.39001 283.5"
   version="1.1"
   id="svg108"
   sodipodi:docname="logo_txt_inicials.svg"
   inkscape:version="0.92.1 r15371">
  <metadata
     id="metadata114">
    <rdf:RDF>
      <cc:Work
         rdf:about="">
        <dc:format>image/svg+xml</dc:format>
        <dc:type
           rdf:resource="http://purl.org/dc/dcmitype/StillImage" />
        <dc:title></dc:title>
      </cc:Work>
    </rdf:RDF>
  </metadata>
  <defs
     id="defs112" />
  <sodipodi:namedview
     pagecolor="#ffffff"
     bordercolor="#666666"
     borderopacity="1"
     objecttolerance="10"
     gridtolerance="10"
     guidetolerance="10"
     inkscape:pageopacity="0"
     inkscape:pageshadow="2"
     inkscape:window-width="1920"
     inkscape:window-height="1057"
     id="namedview110"
     showgrid="false"
     fit-margin-top="0"
     fit-margin-left="0"
     fit-margin-right="0"
     fit-margin-bottom="0"
     inkscape:zoom="0.82332538"
     inkscape:cx="357.40998"
     inkscape:cy="61.068713"
     inkscape:window-x="-8"
     inkscape:window-y="-8"
     inkscape:window-maximized="1"
     inkscape:current-layer="svg108" />
  <g
     id="#ffd600ff">
    <path
       d="m 0,0 h 281.53 c -0.07,25.16 0,50.32 -0.04,75.48 -22.15,0.07 -44.34,2.98 -65.65,9.06 -16.81,4.8 -33.11,11.8 -47.56,21.7 -11.23,7.91 -21.73,17.66 -27.81,30.17 -6.13,11.39 -15.29,20.9 -25.86,28.27 -23.55,16.56 -51.86,25.07 -80.12,29.08 -11.42,1.74 -22.98,1.92 -34.49,2.57 z"
       id="path2"
       inkscape:connector-curvature="0"
       style="opacity:1;fill:#ffd600" />
  </g>
  <g
     id="#ffffffff" />
  <g
     id="#ff8c17ff">
    <path
       d="m 202.32,103.24 c 25.32,-9.15 52.34,-13.42 79.24,-13.19 -0.14,64.48 -0.02,128.96 -0.06,193.44 -93.84,0.02 -187.67,0 -281.5,0.01 v -73.26 c 4.32,-0.01 8.64,0.09 12.96,-0.01 29.53,-1.79 59.23,-7.98 85.7,-21.56 17.53,-9.05 34.02,-21.85 43.28,-39.65 4.8,-9.39 12.08,-17.26 20.21,-23.87 11.98,-9.59 25.83,-16.59 40.17,-21.91 z"
       id="path6"
       inkscape:connector-curvature="0"
       style="opacity:1;fill:#ff8c17" />
  </g>
  <path
     style="opacity:1;fill:#000000"
     inkscape:connector-curvature="0"
     id="path9"
     d="m 372.72,130.7 c 8.03,-8.38 19.86,-12.35 31.31,-12.14 10.45,-0.18 21.23,3.19 28.85,10.53 6.32,5.83 9.83,14.16 10.8,22.6 -6.61,0.04 -13.21,0.01 -19.82,0.02 -1.03,-5.24 -4.14,-10.04 -8.8,-12.75 -8.47,-5.29 -20.59,-3.79 -27.45,3.51 -4.65,5.03 -6.8,11.83 -7.64,18.52 -0.84,9.31 0.15,19.46 5.85,27.21 6,8.32 18.16,11.13 27.37,6.8 6.92,-3.34 10.51,-11.06 11.3,-18.39 6.65,-0.01 13.3,-0.05 19.96,0.02 -0.93,10.62 -5.22,21.31 -13.45,28.36 -8.39,7.42 -20.11,10.07 -31.07,9.06 -11.73,-0.57 -23.29,-6.13 -30.52,-15.48 -7.53,-9.4 -10.53,-21.72 -10.3,-33.59 0.49,-12.47 4.43,-25.43 13.61,-34.28 z" />
  <path
     style="opacity:1;fill:#000000"
     inkscape:connector-curvature="0"
     id="path11"
     d="m 466.31,131.33 c 14.32,-14.98 39.91,-17.12 56.75,-5.21 8.05,5.7 13.14,15.08 14.06,24.86 -6.58,0.03 -13.15,0.05 -19.73,-0.02 -1.1,-5.4 -4.47,-10.4 -9.43,-12.93 -6.39,-3.21 -14.25,-2.77 -20.6,0.33 -6.93,3.6 -10.93,11.1 -12.34,18.54 -2.3,10.88 -1.06,23.18 5.8,32.24 7.23,8.9 21.3,10.19 30.79,4.29 5.22,-3.38 7.45,-9.63 8.3,-15.52 -6.78,-0.06 -13.56,0.1 -20.33,-0.09 0.03,-5.16 -0.01,-10.31 0.03,-15.47 12.94,-0.06 25.88,-0.19 38.82,0.07 -0.06,16.53 -0.01,33.05 -0.03,49.58 -4.39,0 -8.78,0 -13.17,0 -0.77,-3.2 -1.38,-6.45 -1.63,-9.73 -4.98,5.36 -11.1,9.97 -18.44,11.39 -13.1,2.07 -27.43,-1.32 -37.2,-10.57 -9.89,-9.11 -14.56,-22.84 -14.4,-36.08 -0.24,-12.88 3.82,-26.17 12.75,-35.68 z" />
  <path
     style="opacity:1;fill:#000000"
     inkscape:connector-curvature="0"
     id="path13"
     d="m 563.21,131.14 c 8.11,-8.58 20.08,-12.81 31.76,-12.58 11.36,-0.22 23.18,3.86 30.82,12.52 5.12,5.68 7.98,13.09 8.84,20.63 -6.59,0.01 -13.18,-0.03 -19.76,0.02 -1.01,-4.49 -3.28,-8.8 -7.05,-11.56 -8.65,-6.75 -22.4,-5.5 -29.64,2.76 -4.25,4.65 -6.15,10.9 -7.1,17 -1.09,9.64 -0.16,20.16 5.67,28.25 6.41,8.92 19.97,11.57 29.27,5.76 5.85,-3.75 8.59,-10.68 9.47,-17.33 6.63,-0.03 13.26,-0.03 19.9,0 -0.89,10.84 -5.37,21.82 -13.95,28.8 -8.35,7.03 -19.73,9.65 -30.45,8.64 -12,-0.56 -23.81,-6.37 -31.05,-16.05 -7.2,-9.34 -10.11,-21.4 -9.84,-33.05 0.43,-12.26 4.33,-24.92 13.11,-33.81 z" />
  <path
     style="opacity:1;fill:#000000"
     inkscape:connector-curvature="0"
     id="path15"
     d="m 325.62,120.61 c 6.79,-0.03 13.59,-0.01 20.38,-0.01 0,30.47 0,60.93 0,91.4 -6.8,0 -13.6,0 -20.4,0 0.01,-30.46 -0.04,-60.93 0.02,-91.39 z" />
</svg>
